<svg id="visual" viewBox="0 0 900 600" width="900" height="600" xmlns="http://www.w3.org/2000/svg" xmlns:xlink="http://www.w3.org/1999/xlink" version="1.1"><rect x="0" y="0" width="900" height="600" fill="#060606"></rect><g transform="translate(341.55119287433877 370.60238274104796)"><path d="M126.9 -184.5C206.5 -146.3 342 -182.2 406.2 -152.9C470.5 -123.5 463.4 -29 434.3 51.2C405.2 131.3 354.1 196.9 286.6 215.1C219.1 233.3 135.2 204 73.8 197.1C12.5 190.3 -26.3 206 -70.7 208C-115.2 210 -165.3 198.3 -198.7 167.7C-232 137.1 -248.6 87.6 -232.8 47.4C-216.9 7.1 -168.5 -23.8 -150.8 -71.4C-133 -119 -146 -183.2 -126 -248.5C-106 -313.9 -53 -380.4 -14.7 -357.6C23.7 -334.8 47.3 -222.6 126.9 -184.5" fill="#1F1F1F"></path></g></svg>