<svg id="visual" viewBox="0 0 900 600" width="900" height="600" xmlns="http://www.w3.org/2000/svg" xmlns:xlink="http://www.w3.org/1999/xlink" version="1.1"><g transform="translate(471.5837867674854 318.5539838810993)"><path d="M127.5 -188.9C184.3 -161.9 262.7 -158.8 260.5 -129.1C258.3 -99.4 175.6 -43 138.6 0.2C101.7 43.4 110.5 73.4 100.1 88.3C89.7 103.2 59.9 102.9 25.6 134.8C-8.7 166.6 -47.6 230.6 -78.6 236C-109.6 241.3 -132.6 188.1 -175.9 147.3C-219.3 106.5 -282.9 78.2 -299.2 36.4C-315.6 -5.4 -284.7 -60.7 -248.4 -102.3C-212.1 -144 -170.4 -172.1 -128.1 -205.8C-85.8 -239.5 -42.9 -278.7 -3.8 -272.9C35.3 -267 70.6 -215.9 127.5 -188.9" fill="#333333"></path></g></svg>