<svg id="visual" viewBox="0 0 900 600" width="900" height="600" xmlns="http://www.w3.org/2000/svg" xmlns:xlink="http://www.w3.org/1999/xlink" version="1.1"><rect x="0" y="0" width="900" height="600" fill="#060606"></rect><g transform="translate(497.8346885179144 315.33444657922996)"><path d="M85.5 -174.2C105.4 -120.2 112.4 -87.4 156.4 -53.2C200.4 -19 281.3 16.5 327.5 82.9C373.8 149.3 385.3 246.6 335.8 275.1C286.4 303.7 176 263.6 101.4 235.1C26.9 206.6 -11.9 189.7 -88.4 209.2C-164.8 228.6 -278.9 284.6 -356.7 268.2C-434.6 251.8 -476.1 163.1 -460.3 83.7C-444.6 4.2 -371.5 -66 -308.7 -115C-245.9 -164 -193.5 -191.8 -143.8 -232.1C-94.1 -272.4 -47 -325.2 -7.1 -314.1C32.8 -303 65.6 -228.1 85.5 -174.2" fill="#1F1F1F"></path></g></svg>