<svg id="visual" viewBox="0 0 900 600" width="900" height="600" xmlns="http://www.w3.org/2000/svg" xmlns:xlink="http://www.w3.org/1999/xlink" version="1.1"><g transform="translate(442.84743124695035 239.31799720101304)"><path d="M95 -156C121.5 -130.8 140.4 -101.7 182.5 -66.6C224.6 -31.4 290 9.8 275.2 32.2C260.5 54.5 165.7 58 123.4 107.2C81.1 156.4 91.4 251.4 62 301.1C32.6 350.9 -36.5 355.3 -72.6 314.2C-108.7 273.1 -111.8 186.3 -144 133.5C-176.2 80.7 -237.6 61.8 -256.3 27.9C-275.1 -6 -251.2 -54.9 -225.5 -99.5C-199.7 -144.1 -172 -184.4 -134.1 -204.4C-96.2 -224.4 -48.1 -224.2 -6.9 -213.4C34.2 -202.6 68.5 -181.2 95 -156" fill="#5d5d5d"></path></g></svg>