<svg id="visual" viewBox="0 0 900 600" width="900" height="600" xmlns="http://www.w3.org/2000/svg" xmlns:xlink="http://www.w3.org/1999/xlink" version="1.1"><rect x="0" y="0" width="900" height="600" fill="#060606"></rect><g transform="translate(458.48264011162667 268.93288094965544)"><path d="M146.5 -206.3C216.2 -183.2 317.3 -187.1 352.9 -149.4C388.5 -111.6 358.6 -32.2 305.4 14C252.1 60.2 175.7 73.1 130.5 98C85.4 122.9 71.6 159.8 30.4 229.4C-10.8 299 -79.4 401.4 -142.8 415.2C-206.2 429 -264.4 354.3 -312.2 280.8C-360 207.2 -397.3 134.9 -381.8 70.7C-366.4 6.6 -298.3 -49.2 -268 -125.3C-237.8 -201.3 -245.4 -297.5 -207 -335C-168.7 -372.5 -84.3 -351.2 -23 -315.5C38.4 -279.7 76.8 -229.5 146.5 -206.3" fill="#1F1F1F"></path></g></svg>