<svg id="visual" viewBox="0 0 900 600" width="900" height="600" xmlns="http://www.w3.org/2000/svg" xmlns:xlink="http://www.w3.org/1999/xlink" version="1.1"><g transform="translate(455.5259658011399 344.86955091944185)"><path d="M61.1 -141.9C75.3 -85.9 80.3 -62.4 89 -41.3C97.8 -20.1 110.3 -1.2 128.9 33.8C147.6 68.7 172.4 119.8 166.6 166.6C160.7 213.4 124.2 255.9 85.9 245.7C47.7 235.4 7.8 172.4 -34.4 146.6C-76.6 120.7 -121 132.1 -147.4 118.4C-173.7 104.7 -181.9 66 -177.3 31.6C-172.8 -2.8 -155.5 -33 -157.4 -89.7C-159.2 -146.4 -180.2 -229.7 -157.1 -281.7C-134.1 -333.6 -67 -354.3 -21.8 -320.4C23.4 -286.5 46.9 -197.9 61.1 -141.9" fill="#333333"></path></g></svg>