<svg width="34" height="34" viewBox="0 0 34 34" fill="none" xmlns="http://www.w3.org/2000/svg">
<g clip-path="url(#clip0_275_2407)">
<path d="M17 3.41333C9.40588 3.41333 3.25 9.56921 3.25 17.1633C3.25 24.026 8.27837 29.7143 14.8522 30.747V21.1371H11.3597V17.1633H14.8522V14.1342C14.8522 10.6885 16.9038 8.78546 20.0456 8.78546C21.5499 8.78546 23.1229 9.05358 23.1229 9.05358V12.4361H21.3904C19.6812 12.4361 19.1491 13.4962 19.1491 14.5838V17.1633H22.962L22.3529 21.1371H19.1491V30.747C25.7216 29.7157 30.75 24.0246 30.75 17.1633C30.75 9.56921 24.5941 3.41333 17 3.41333Z" fill="#6B6D74"/>
</g>
<defs>
<clipPath id="clip0_275_2407">
<rect width="33" height="33" fill="white" transform="translate(0.5 0.66333)"/>
</clipPath>
</defs>
</svg>
