<svg width="34" height="34" viewBox="0 0 34 34" fill="none" xmlns="http://www.w3.org/2000/svg">
<path d="M17 33.6633C26.1127 33.6633 33.5 26.276 33.5 17.1633C33.5 8.05063 26.1127 0.66333 17 0.66333C7.8873 0.66333 0.5 8.05063 0.5 17.1633C0.5 26.276 7.8873 33.6633 17 33.6633Z" fill="#6B6D74"/>
<path d="M17 9.04712C19.6434 9.04712 19.9565 9.05719 21.0004 9.10479C21.9657 9.14884 22.4899 9.31013 22.8387 9.44568C23.3008 9.62528 23.6306 9.83978 23.977 10.1862C24.3235 10.5327 24.538 10.8625 24.7176 11.3245C24.8531 11.6734 25.0144 12.1976 25.0585 13.1628C25.1061 14.2068 25.1162 14.5198 25.1162 17.1632C25.1162 19.8067 25.1061 20.1198 25.0585 21.1637C25.0144 22.129 24.8531 22.6531 24.7176 23.002C24.538 23.4641 24.3235 23.7939 23.9771 24.1403C23.6306 24.4867 23.3008 24.7012 22.8387 24.8808C22.4899 25.0165 21.9657 25.1777 21.0004 25.2217C19.9567 25.2693 19.6436 25.2795 17 25.2795C14.3563 25.2795 14.0433 25.2693 12.9996 25.2217C12.0343 25.1777 11.5101 25.0165 11.1612 24.8808C10.6991 24.7012 10.3694 24.4867 10.023 24.1403C9.67653 23.7939 9.46195 23.4641 9.28235 23.002C9.1468 22.6531 8.98551 22.129 8.94146 21.1637C8.89386 20.1198 8.88379 19.8067 8.88379 17.1632C8.88379 14.5198 8.89386 14.2068 8.94146 13.1628C8.98551 12.1976 9.1468 11.6734 9.28235 11.3245C9.46195 10.8625 9.67645 10.5327 10.023 10.1863C10.3694 9.83978 10.6991 9.62528 11.1612 9.44568C11.5101 9.31013 12.0343 9.14884 12.9996 9.10479C14.0434 9.05719 14.3566 9.04712 17 9.04712ZM17 7.26331C14.3113 7.26331 13.9741 7.27469 12.9182 7.32287C11.8645 7.37097 11.1448 7.53828 10.5151 7.78306C9.86406 8.036 9.31197 8.3745 8.76161 8.92494C8.21117 9.4753 7.87267 10.0274 7.61973 10.6784C7.37495 11.3081 7.20764 12.0278 7.15954 13.0815C7.11136 14.1375 7.09998 14.4746 7.09998 17.1632C7.09998 19.852 7.11136 20.1891 7.15954 21.245C7.20764 22.2988 7.37495 23.0184 7.61973 23.6481C7.87267 24.2991 8.21117 24.8512 8.76161 25.4017C9.31197 25.952 9.86406 26.2905 10.5151 26.5435C11.1448 26.7882 11.8645 26.9556 12.9182 27.0037C13.9741 27.0518 14.3113 27.0632 17 27.0632C19.6887 27.0632 20.0258 27.0518 21.0817 27.0037C22.1354 26.9556 22.8552 26.7882 23.4849 26.5435C24.1359 26.2905 24.688 25.952 25.2383 25.4017C25.7887 24.8512 26.1273 24.2991 26.3802 23.6481C26.625 23.0184 26.7923 22.2988 26.8404 21.245C26.8886 20.1891 26.9 19.852 26.9 17.1632C26.9 14.4746 26.8886 14.1375 26.8404 13.0815C26.7923 12.0278 26.625 11.3081 26.3802 10.6784C26.1273 10.0274 25.7887 9.4753 25.2383 8.92494C24.688 8.3745 24.1359 8.036 23.4849 7.78306C22.8552 7.53828 22.1354 7.37097 21.0817 7.32287C20.0258 7.27469 19.6887 7.26331 17 7.26331Z" fill="#060606"/>
<path d="M17.0049 12.0841C14.1972 12.0841 11.9211 14.3601 11.9211 17.1678C11.9211 19.9756 14.1972 22.2516 17.0049 22.2516C19.8126 22.2516 22.0887 19.9756 22.0887 17.1678C22.0887 14.3601 19.8126 12.0841 17.0049 12.0841ZM17.0049 20.4678C15.1824 20.4678 13.7049 18.9903 13.7049 17.1678C13.7049 15.3453 15.1824 13.8678 17.0049 13.8678C18.8275 13.8678 20.3049 15.3453 20.3049 17.1678C20.3049 18.9903 18.8275 20.4678 17.0049 20.4678Z" fill="#060606"/>
<path d="M23.4768 11.8802C23.4768 12.5363 22.945 13.0682 22.2888 13.0682C21.6327 13.0682 21.1008 12.5363 21.1008 11.8802C21.1008 11.2241 21.6327 10.6921 22.2888 10.6921C22.945 10.6921 23.4768 11.2241 23.4768 11.8802Z" fill="#060606"/>
</svg>
