<svg width="25" height="25" viewBox="0 0 25 25" fill="none" xmlns="http://www.w3.org/2000/svg">
<g clip-path="url(#clip0_275_2400)">
<path d="M15.55 5.66333C16.5267 5.8539 17.4244 6.33159 18.1281 7.03527C18.8317 7.73894 19.3094 8.6366 19.5 9.61333L15.55 5.66333ZM15.55 1.66333C17.5793 1.88877 19.4716 2.7975 20.9162 4.24034C22.3609 5.68317 23.272 7.57434 23.5 9.60333L15.55 1.66333ZM22.5 17.5833V20.5833C22.5011 20.8618 22.4441 21.1375 22.3325 21.3927C22.2209 21.6479 22.0573 21.8769 21.8521 22.0652C21.6468 22.2535 21.4046 22.3968 21.1407 22.486C20.8769 22.5753 20.5974 22.6084 20.32 22.5833C17.2428 22.249 14.287 21.1975 11.69 19.5133C9.27382 17.978 7.22533 15.9295 5.68999 13.5133C3.99997 10.9045 2.94824 7.93432 2.61999 4.84333C2.595 4.5668 2.62787 4.28809 2.71649 4.02495C2.80512 3.76182 2.94756 3.52002 3.13476 3.31495C3.32196 3.10988 3.5498 2.94604 3.80379 2.83385C4.05777 2.72166 4.33233 2.66359 4.60999 2.66333H7.60999C8.0953 2.65855 8.56579 2.83041 8.93376 3.14686C9.30173 3.46332 9.54207 3.90278 9.60999 4.38333C9.73662 5.3434 9.97144 6.28606 10.31 7.19333C10.4445 7.55125 10.4737 7.94024 10.3939 8.31421C10.3141 8.68818 10.1289 9.03144 9.85999 9.30333L8.58999 10.5733C10.0135 13.0769 12.0864 15.1498 14.59 16.5733L15.86 15.3033C16.1319 15.0345 16.4751 14.8492 16.8491 14.7694C17.2231 14.6897 17.6121 14.7188 17.97 14.8533C18.8773 15.1919 19.8199 15.4267 20.78 15.5533C21.2658 15.6219 21.7094 15.8665 22.0265 16.2408C22.3437 16.6151 22.5122 17.0929 22.5 17.5833Z" stroke="#6B6D74" stroke-width="2" stroke-linecap="round" stroke-linejoin="round"/>
</g>
<defs>
<clipPath id="clip0_275_2400">
<rect width="24" height="24" fill="white" transform="translate(0.5 0.66333)"/>
</clipPath>
</defs>
</svg>
