<svg width="37" height="36" viewBox="0 0 37 36" fill="none" xmlns="http://www.w3.org/2000/svg">
<g clip-path="url(#clip0_362_236)">
<path d="M30.9354 5.97725C27.8262 2.75903 23.2931 0.91333 18.4994 0.91333C13.7068 0.91333 9.17368 2.75903 6.06553 5.97622C3.16026 8.98403 1.64248 13.0055 1.79095 17.3025L2.24274 23.0362C2.65501 28.8296 6.01849 29.4555 7.44447 29.4555C7.96147 29.4555 8.50616 29.3807 9.05945 29.2376C9.13424 29.7802 9.12781 30.7318 9.12248 31.4721L9.11715 32.5018C9.10751 33.2495 9.09261 34.3817 9.8851 35.1838C10.213 35.5171 10.8123 35.9133 11.7992 35.9133H25.2008C26.1878 35.9133 26.7859 35.5171 27.1148 35.1849C27.9063 34.3817 27.8924 33.2505 27.8828 32.5018L27.8764 31.4743C27.8721 30.733 27.8646 29.7803 27.9405 29.2376C28.4991 29.3818 29.0407 29.4556 29.5555 29.4556C30.9814 29.4556 34.3438 28.8297 34.7572 23.0469L35.2058 17.3624L35.2091 17.3026C35.3575 13.0055 33.8396 8.98403 30.9354 5.97725ZM32.4426 17.1764L31.9971 22.8396C31.8145 25.3924 30.992 26.6869 29.5554 26.6869C29.2243 26.6869 28.8536 26.626 28.4413 26.5031C27.4566 26.219 26.6031 26.4091 26.0007 27.0158C25.0843 27.9387 25.0939 29.4298 25.1088 31.4934L25.1142 32.538C25.1163 32.7089 25.1195 32.961 25.1045 33.1446H22.1822V29.7256H19.9669V33.1447H17.0317V29.7257H14.8175V33.1447H11.894C11.8802 32.961 11.8834 32.7089 11.8855 32.5359L11.8908 31.4902C11.9058 29.4288 11.9154 27.9387 10.9989 27.0159C10.3997 26.4113 9.56661 26.2127 8.54656 26.5064C8.14604 26.626 7.77539 26.687 7.44426 26.687C6.0066 26.687 5.18629 25.3924 5.00254 22.8289L4.55608 17.1764C4.44288 13.6485 5.68401 10.3555 8.05628 7.90088C10.6466 5.21996 14.4534 3.68188 18.4994 3.68188C22.5465 3.68188 26.3533 5.21996 28.9434 7.90094C31.3157 10.3555 32.5579 13.6485 32.4426 17.1764Z" fill="#626262"/>
<path d="M18.5005 22.0813C17.8361 22.0813 16.3728 25.2729 16.1058 25.8048C15.8409 26.3367 16.3728 27.1356 17.1707 26.8686C17.9686 26.6037 18.5005 25.9383 18.5005 25.9383C18.5005 25.9383 19.0324 26.6037 19.8303 26.8686C20.6271 27.1356 21.1601 26.3367 20.8942 25.8048C20.6271 25.2729 19.1659 22.0813 18.5005 22.0813Z" fill="#626262"/>
<path d="M12.7295 13.4422C10.6178 13.22 8.72516 14.7538 8.50299 16.8666L8.2167 18.8778C7.99453 20.9916 9.52838 22.8822 11.64 23.1043C13.7538 23.3265 15.6465 21.7938 15.8676 19.6799L16.1539 17.6687C16.375 15.5549 14.8433 13.6643 12.7295 13.4422Z" fill="#626262"/>
<path d="M28.4969 16.8666C28.2759 14.7538 26.382 13.22 24.2704 13.4422C22.1566 13.6643 20.625 15.5549 20.846 17.6687L21.1312 19.6799C21.3534 21.7938 23.2461 23.3265 25.3588 23.1043C27.4716 22.8822 29.0054 20.9916 28.7832 18.8778L28.4969 16.8666Z" fill="#626262"/>
</g>
<defs>
<clipPath id="clip0_362_236">
<rect width="35.438" height="35" fill="white" transform="translate(0.781006 0.91333)"/>
</clipPath>
</defs>
</svg>
