<svg width="34" height="34" viewBox="0 0 34 34" fill="none" xmlns="http://www.w3.org/2000/svg">
<path d="M17 33.6633C26.1127 33.6633 33.5 26.276 33.5 17.1633C33.5 8.05063 26.1127 0.66333 17 0.66333C7.8873 0.66333 0.5 8.05063 0.5 17.1633C0.5 26.276 7.8873 33.6633 17 33.6633Z" fill="#6B6D74"/>
<path d="M25.1262 8.10376L18.5161 15.2448L18.2332 15.5505L18.4826 15.884L26.2154 26.2228H21.3856L15.9216 18.9167L15.562 18.4359L15.1542 18.8765L8.35411 26.2228H7.93046L15.0897 18.4886L15.3726 18.183L15.1232 17.8495L7.83432 8.10376H12.6641L17.6846 14.8165L18.0441 15.2972L18.4519 14.8567L24.7025 8.10376H25.1262ZM9.46287 8.41943H8.46454L9.06247 9.21889L21.3937 25.7065L21.5437 25.9071H21.7941H24.5865H25.5849L24.9869 25.1076L12.6557 8.61996L12.5057 8.41943H12.2553H9.46287Z" stroke="#060606"/>
</svg>
